<?xml version="1.0" encoding="utf-8"?>
<!-- Generator: Adobe Illustrator 15.0.2, SVG Export Plug-In . SVG Version: 6.00 Build 0)  -->
<!DOCTYPE svg PUBLIC "-//W3C//DTD SVG 1.1//EN" "http://www.w3.org/Graphics/SVG/1.1/DTD/svg11.dtd">
<svg version="1.1" id="Calque_1" xmlns="http://www.w3.org/2000/svg" xmlns:xlink="http://www.w3.org/1999/xlink" x="0px" y="0px"
	 width="36px" height="576px" viewBox="0 0 36 576" enable-background="new 0 0 36 576" xml:space="preserve">
<g>
	<circle fill="#FFC107" cx="26.001" cy="10" r="6"/>
	<circle opacity="0.75" fill="#FFC107" enable-background="new    " cx="26.001" cy="46" r="6"/>
	<circle opacity="0.5" fill="#FFC107" enable-background="new    " cx="26.001" cy="82" r="6"/>
	<circle opacity="0.5" fill="#FFC107" enable-background="new    " cx="10" cy="82" r="6"/>
	<circle opacity="0.25" fill="#FFC107" enable-background="new    " cx="26.001" cy="118" r="6"/>
	<circle opacity="0.75" fill="#FFC107" enable-background="new    " cx="10" cy="118" r="6"/>
	<circle opacity="0.25" fill="#FFC107" enable-background="new    " cx="10" cy="46" r="6"/>
	<circle fill="#FFC107" cx="10" cy="154" r="6"/>
	<circle opacity="0.75" fill="#FFC107" enable-background="new    " cx="10.001" cy="190" r="6"/>
	<circle opacity="0.5" fill="#FFC107" enable-background="new    " cx="10.001" cy="226" r="6"/>
	<circle opacity="0.5" fill="#FFC107" enable-background="new    " cx="10" cy="242.25" r="6"/>
	<circle opacity="0.25" fill="#FFC107" enable-background="new    " cx="10.001" cy="262" r="6"/>
	<circle opacity="0.75" fill="#FFC107" enable-background="new    " cx="10" cy="278.25" r="6"/>
	<circle opacity="0.25" fill="#FFC107" enable-background="new    " cx="10" cy="206.248" r="6"/>
	<circle fill="#FFC107" cx="26.001" cy="458" r="6"/>
	<circle opacity="0.75" fill="#FFC107" enable-background="new    " cx="26.001" cy="494" r="6"/>
	<circle opacity="0.5" fill="#FFC107" enable-background="new    " cx="26.001" cy="530" r="6"/>
	<circle opacity="0.5" fill="#FFC107" enable-background="new    " cx="26.001" cy="514.25" r="6"/>
	<circle opacity="0.25" fill="#FFC107" enable-background="new    " cx="26.001" cy="566" r="6"/>
	<circle opacity="0.75" fill="#FFC107" enable-background="new    " cx="26.001" cy="550.25" r="6"/>
	<circle opacity="0.25" fill="#FFC107" enable-background="new    " cx="26.001" cy="478.25" r="6"/>
	<circle fill="#FFC107" cx="10" cy="314" r="6"/>
	<circle opacity="0.75" fill="#FFC107" enable-background="new    " cx="10.001" cy="350" r="6"/>
	<circle opacity="0.5" fill="#FFC107" enable-background="new    " cx="10.001" cy="386" r="6"/>
	<circle opacity="0.5" fill="#FFC107" enable-background="new    " cx="26.001" cy="386" r="6"/>
	<circle opacity="0.25" fill="#FFC107" enable-background="new    " cx="10.001" cy="422" r="6"/>
	<circle opacity="0.75" fill="#FFC107" enable-background="new    " cx="26.001" cy="422" r="6"/>
	<circle opacity="0.25" fill="#FFC107" enable-background="new    " cx="26.001" cy="350.248" r="6"/>
	<rect y="0" fill="#607D8B" fill-opacity="0" width="36" height="576"/>
</g>
</svg>
