<svg id="Calque_1" data-name="Calque 1" xmlns="http://www.w3.org/2000/svg" viewBox="0 0 512 331.24"><defs><style>.cls-1{font-size:87.15px;fill:#1d1d1b;font-family:Seravek-Bold, Seravek;font-weight:700;}.cls-2{letter-spacing:-0.01em;}.cls-3{letter-spacing:-0.03em;}.cls-4{letter-spacing:0em;}.cls-5,.cls-8{fill:#609c7b;}.cls-5,.cls-6{fill-rule:evenodd;}.cls-6{fill:#2371b8;}.cls-7{fill:#1f7abf;}.cls-9{fill:#2d2459;}</style></defs><text class="cls-1" transform="translate(0 293.24)">Olivia<tspan class="cls-2" x="231.12" y="0"> </tspan><tspan class="cls-3" x="248.55" y="0">W</tspan><tspan class="cls-4" x="332.74" y="0">allet</tspan></text><path class="cls-5" d="M329.09,107.94a91.6,91.6,0,0,1-166.31,52.33,106.88,106.88,0,0,0,194.29-52.33H366L343.11,72.09l-22.84,35.85Z"/><path class="cls-6" d="M180.47,98.21A91.6,91.6,0,0,1,346.78,45.88,106.87,106.87,0,0,0,152.5,98.21h-8.89l22.84,35.85,22.84-35.85Z"/><path class="cls-7" d="M296.49,109h-6.1a7,7,0,0,1-6.95-7v-8.8a7,7,0,0,1,6.95-7h20V66.68A10.62,10.62,0,0,0,299.8,56.06h-90a10.62,10.62,0,0,0-10.61,10.62v72.5H299.8a10.61,10.61,0,0,0,10.61-10.62V109Z"/><path class="cls-8" d="M199.15,139.18l66.12,19.26a10.59,10.59,0,0,0,13.55-10.17v-9.09Z"/><circle class="cls-9" cx="295.64" cy="97.62" r="5.77"/></svg>