<svg id="Calque_1" data-name="Calque 1" xmlns="http://www.w3.org/2000/svg" viewBox="0 0 512 330.46"><defs><style>.cls-1,.cls-4{fill:#609c7b;}.cls-1,.cls-2{fill-rule:evenodd;}.cls-2{fill:#2371b8;}.cls-3{fill:#1f7abf;}.cls-5{fill:#2d2459;}.cls-6{font-size:125.08px;fill:#1d1d1b;font-family:Seravek-Bold, Seravek;font-weight:700;}</style></defs><path class="cls-1" d="M130,152.58A64.18,64.18,0,0,1,13.43,189.24a74.88,74.88,0,0,0,136.13-36.66h6.22l-16-25.12-16,25.12Z"/><path class="cls-2" d="M25.83,145.76A64.18,64.18,0,0,1,142.35,109.1,74.88,74.88,0,0,0,6.22,145.76H0l16,25.12,16-25.12Z"/><path class="cls-3" d="M107.12,153.3h-4.28A4.87,4.87,0,0,1,98,148.43v-6.16a4.87,4.87,0,0,1,4.87-4.87h14V123.67a7.44,7.44,0,0,0-7.44-7.44H46.35a7.44,7.44,0,0,0-7.44,7.44v50.8h70.52a7.44,7.44,0,0,0,7.44-7.44V153.3Z"/><path class="cls-4" d="M38.91,174.47,85.24,188a7.43,7.43,0,0,0,9.5-7.13v-6.36Z"/><circle class="cls-5" cx="106.52" cy="145.35" r="4.05"/><text class="cls-6" transform="translate(180.3 198.98)">O<tspan x="93.56" y="0">livia</tspan></text></svg>